mtllib model_0.mtl
o model_0
v -212.77554321289062 1987.0185546875 199.3369903564453 
v -212.77554321289062 1782.240966796875 199.33702087402344 
v -504.9849853515625 1987.0185546875 199.3369903564453 
v -504.9849853515625 1782.240966796875 199.33702087402344 
v -146.1312713623047 1782.240966796875 199.33702087402344 
v -146.1312713623047 1987.0185546875 199.3369903564453 
v 146.07818603515625 1782.240966796875 199.33702087402344 
v 146.07818603515625 1987.0185546875 199.3369903564453 
vn -7.137130106750836e-14 0.00213355734013021 -0.9956763982772827 
vn -7.137130106750836e-14 0.00213355734013021 -0.9956763982772827 
vn -7.137130106750836e-14 0.00213355734013021 -0.9956763982772827 
vn -7.137130106750836e-14 0.00213355734013021 -0.9956763982772827 
vn -7.137130106750836e-14 0.00213355734013021 -0.9956763982772827 
vn -7.137130106750836e-14 0.00213355734013021 -0.9956763982772827 
vn -7.137130106750836e-14 0.00213355734013021 -0.9956763982772827 
vn -7.137130106750836e-14 0.00213355734013021 -0.9956763982772827 
s on 
f 1//1 2//2 3//3 
f 2//2 4//4 3//3 
f 3//3 4//4 4//4 
f 4//4 5//5 4//4 
f 4//4 5//5 5//5 
f 5//5 6//6 5//5 
f 5//5 6//6 7//7 
f 6//6 8//8 7//7 

